<svg id="instagram" xmlns="http://www.w3.org/2000/svg" width="34" height="34" viewBox="0 0 34 34">
  <path id="Path_19" data-name="Path 19" d="M17,0A17,17,0,1,0,34,17,17,17,0,0,0,17,0Zm0,32.867A15.867,15.867,0,1,1,32.867,17,15.867,15.867,0,0,1,17,32.867Zm0,0" fill="#b9874c"/>
  <path id="Path_20" data-name="Path 20" d="M113.567,96H98.833A2.837,2.837,0,0,0,96,98.833v14.733a2.837,2.837,0,0,0,2.833,2.833h14.733a2.837,2.837,0,0,0,2.833-2.833V98.833A2.837,2.837,0,0,0,113.567,96Zm1.7,17.567a1.7,1.7,0,0,1-1.7,1.7H98.833a1.7,1.7,0,0,1-1.7-1.7V98.833a1.7,1.7,0,0,1,1.7-1.7h14.733a1.7,1.7,0,0,1,1.7,1.7Zm0,0" transform="translate(-89.2 -89.2)" fill="#b9874c"/>
  <path id="Path_21" data-name="Path 21" d="M165.667,160a5.667,5.667,0,1,0,5.667,5.667A5.667,5.667,0,0,0,165.667,160Zm0,10.2a4.533,4.533,0,1,1,4.533-4.533A4.533,4.533,0,0,1,165.667,170.2Zm0,0" transform="translate(-148.667 -148.667)" fill="#b9874c"/>
  <path id="Path_22" data-name="Path 22" d="M305.7,128a1.7,1.7,0,1,0,1.7,1.7A1.7,1.7,0,0,0,305.7,128Zm0,2.267a.567.567,0,1,1,.567-.567A.567.567,0,0,1,305.7,130.267Zm0,0" transform="translate(-282.467 -118.933)" fill="#b9874c"/>
</svg>
